<?xml version="1.0" encoding="UTF-8"?>
<svg width="800" height="800" version="1.1" viewBox="0 0 800.00001 800.00001" xmlns="http://www.w3.org/2000/svg">
 <g transform="translate(0 -252.36)" fill-rule="evenodd">
  <path d="m304.29 759.51h193.57l223.57 168.57 55-78.571-45-363.57-115.71-94.286-411.43 0.71429-117.86 67.143-62.143 385 60.713 84.29z" fill="#404040"/>
  <path d="m154.29 498.08 125-0.71429 37.143 91.429-53.571 77.143-88.571-2.1429-48.571-69.286z" fill="#666"/>
  <path transform="translate(0 252.36)" d="m555 235l1.43 53.57h52.14l-1.43-47.86-52.14-5.71zm-355 19.29l-1.43 48.57-53.57 2.85 0.71 43.58 53.58-1.43 1.42 52.85h43.58l2.14-52.85 48.57 0.71 0.71-45-54.28-2.86 0.71-45.71-42.14-0.71zm297.86 42.14l-2.15 43.57 45 5-2.85-45.71-40-2.86zm125 5l1.43 47.86 39.28 1.42 1.43-45.71-42.14-3.57zm-65 57.86l-2.15 47.85 45 0.72 0.72-42.15-43.57-6.42z" fill="#00BFFF"/>
 </g>
</svg>
